<svg width="268" height="262" viewBox="0 0 268 262" fill="none" xmlns="http://www.w3.org/2000/svg">
<path d="M54.75 117.807C61.422 113.991 65.606 113.398 74.6144 117.807L102.825 146.017M96.315 122.313L126.362 92.2663M119.852 115.469L149.899 146.017M174.103 138.506L143.389 168.553M126.362 138.506L96.315 168.553C76.4506 180.405 61.4271 153.195 78.6207 138.506M143.389 122.313L174.103 92.2663C188.292 82.4178 210.16 101.448 191.631 122.313M102.825 97.2744C82.9608 78.7456 102.825 58.3805 116.847 66.5595L149.899 98.4429M143.389 73.9048C152.545 66.6453 154.227 61.5306 148.23 49.7002M167.259 115.469L194.302 142.346C202.645 148.701 207.079 149.22 214.5 144.015M119.518 161.709L149.899 191.923C167.593 202.941 187.458 179.237 167.593 163.212M126.362 186.081C117.838 192.022 115.982 197.404 119.518 211.788" stroke="white" stroke-width="10.5" stroke-linecap="round" stroke-linejoin="round"/>
<path d="M79.4974 130.702C78.7803 125.837 81.0626 121.459 87.7474 123.202L110.247 145.702L126.747 129.952C132.413 126.486 135.938 126.606 142.497 129.952L157.497 145.702L179.997 123.952C188.845 121.126 191.536 125.715 188.997 132.202L162.747 157.702C159.007 160.79 156.972 160.95 152.997 157.702L135.747 140.452C134.576 139.231 133.915 139.319 132.747 140.452L115.497 156.952C111.221 160.668 108.715 160.668 104.997 156.952L79.4974 130.702Z" fill="black" stroke="white" stroke-width="3"/>
</svg>
